<svg width="193" height="27" viewBox="0 0 193 27" fill="none" xmlns="http://www.w3.org/2000/svg">
<g clip-path="url(#clip0_31_11)">
<path d="M0 25.9519V0.636719H6.81316V10.2716H15.8974V0.636719H22.7105V25.9519H15.8974V16.317H6.81316V25.9519H0Z" fill="#E8552F"/>
<path d="M25.0919 13.2549C25.0919 5.96581 30.4305 0.258881 38.1584 0.258881C45.8862 0.258881 51.2169 5.96581 51.2169 13.2549C51.2169 20.5441 45.8784 26.251 38.1584 26.251C30.4384 26.251 25.0998 20.5441 25.0998 13.2549H25.0919ZM44.0174 13.2549C44.0174 9.58677 42.0854 6.87105 38.1505 6.87105C34.2156 6.87105 32.2836 9.59464 32.2836 13.2549C32.2836 16.9153 34.2156 19.6388 38.1505 19.6388C42.0854 19.6388 44.0174 16.9153 44.0174 13.2549Z" fill="#E8552F"/>
<path d="M53.5984 25.9519V0.636719H65.7501C71.6564 0.636719 75.8989 2.98247 75.8989 8.57132C75.8989 13.4439 72.6027 15.6007 68.2893 15.9785C70.8994 16.624 72.0349 18.2456 73.3203 20.245L76.9555 25.9519H69.1961L64.9931 19.1902C63.9679 17.5292 63.0217 16.8838 60.9399 16.8838H60.4115V25.9519H53.5984ZM60.4115 6.68213V11.4445H65.829C67.7609 11.4445 68.7072 10.6101 68.7072 9.06724C68.7072 7.5244 67.7609 6.69 65.829 6.69H60.4115V6.68213Z" fill="#E8552F"/>
<path d="M77.4445 13.2549C77.4445 5.96581 82.783 0.258881 90.503 0.258881C98.223 0.258881 103.562 5.96581 103.562 13.2549C103.562 20.5441 98.223 26.251 90.503 26.251C82.783 26.251 77.4445 20.5441 77.4445 13.2549ZM96.3699 13.2549C96.3699 9.58677 94.4379 6.87105 90.503 6.87105C86.5681 6.87105 84.6361 9.59464 84.6361 13.2549C84.6361 16.9153 86.5681 19.6388 90.503 19.6388C94.4379 19.6388 96.3699 16.9153 96.3699 13.2549Z" fill="#E8552F"/>
<path d="M105.943 25.9519V0.636719H112.756V10.2716H121.84V0.636719H128.654V25.9519H121.84V16.317H112.756V25.9519H105.943Z" fill="#E8552F"/>
<path d="M132.439 25.9519V0.636719H139.252V25.9519H132.439Z" fill="#E8552F"/>
<path d="M143.037 25.9519V0.636719H155.189C161.095 0.636719 165.337 2.98247 165.337 8.57132C165.337 13.4439 162.041 15.6007 157.728 15.9785C160.338 16.624 161.473 18.2456 162.759 20.245L166.394 25.9519H158.635L154.432 19.1902C153.406 17.5292 152.46 16.8838 150.378 16.8838H149.85V25.9519H143.037ZM149.85 6.68213V11.4445H155.267C157.199 11.4445 158.146 10.6101 158.146 9.06724C158.146 7.5244 157.199 6.69 155.267 6.69H149.85V6.68213Z" fill="#E8552F"/>
<path d="M166.883 13.2549C166.883 5.96581 172.221 0.258881 179.941 0.258881C187.661 0.258881 193 5.96581 193 13.2549C193 20.5441 187.661 26.251 179.941 26.251C172.221 26.251 166.883 20.5441 166.883 13.2549ZM185.808 13.2549C185.808 9.58677 183.876 6.87105 179.941 6.87105C176.007 6.87105 174.075 9.59464 174.075 13.2549C174.075 16.9153 176.007 19.6388 179.941 19.6388C183.876 19.6388 185.808 16.9153 185.808 13.2549Z" fill="#E8552F"/>
</g>
<defs>
<clipPath id="clip0_31_11">
<rect width="193" height="26" fill="white" transform="translate(0 0.258881)"/>
</clipPath>
</defs>
</svg>
