<svg width="208" height="26" viewBox="0 0 208 26" fill="none" xmlns="http://www.w3.org/2000/svg">
<g clip-path="url(#clip0_31_11)">
<path d="M0 25.693V0.377838H6.81316V10.0127H15.8974V0.377838H22.7105V25.693H15.8974V16.0581H6.81316V25.693H0Z" fill="#E8552F"/>
<path d="M25.0919 12.9961C25.0919 5.70693 30.4305 0 38.1584 0C45.8862 0 51.2169 5.70693 51.2169 12.9961C51.2169 20.2852 45.8784 25.9921 38.1584 25.9921C30.4384 25.9921 25.0998 20.2852 25.0998 12.9961H25.0919ZM44.0174 12.9961C44.0174 9.32788 42.0854 6.61217 38.1505 6.61217C34.2156 6.61217 32.2836 9.33576 32.2836 12.9961C32.2836 16.6564 34.2156 19.38 38.1505 19.38C42.0854 19.38 44.0174 16.6564 44.0174 12.9961Z" fill="#E8552F"/>
<path d="M53.5984 25.693V0.377838H65.7501C71.6564 0.377838 75.8989 2.72359 75.8989 8.31244C75.8989 13.185 72.6027 15.3418 68.2893 15.7196C70.8994 16.3651 72.0349 17.9867 73.3203 19.9861L76.9555 25.693H69.1961L64.9931 18.9313C63.9679 17.2704 63.0217 16.6249 60.9399 16.6249H60.4115V25.693H53.5984ZM60.4115 6.42325V11.1856H65.829C67.7609 11.1856 68.7072 10.3512 68.7072 8.80836C68.7072 7.26552 67.7609 6.43112 65.829 6.43112H60.4115V6.42325Z" fill="#E8552F"/>
<path d="M77.4445 12.9961C77.4445 5.70693 82.783 0 90.503 0C98.223 0 103.562 5.70693 103.562 12.9961C103.562 20.2852 98.223 25.9921 90.503 25.9921C82.783 25.9921 77.4445 20.2852 77.4445 12.9961ZM96.3699 12.9961C96.3699 9.32788 94.4379 6.61217 90.503 6.61217C86.5681 6.61217 84.6361 9.33576 84.6361 12.9961C84.6361 16.6564 86.5681 19.38 90.503 19.38C94.4379 19.38 96.3699 16.6564 96.3699 12.9961Z" fill="#E8552F"/>
<path d="M120.943 25.693V0.377838H127.756V10.0127H136.84V0.377838H143.654V25.693H136.84V16.0581H127.756V25.693H120.943Z" fill="#E8552F"/>
<path d="M147.439 25.693V0.377838H154.252V25.693H147.439Z" fill="#E8552F"/>
<path d="M158.037 25.693V0.377838H170.189C176.095 0.377838 180.337 2.72359 180.337 8.31244C180.337 13.185 177.041 15.3418 172.728 15.7196C175.338 16.3651 176.473 17.9867 177.759 19.9861L181.394 25.693H173.635L169.432 18.9313C168.406 17.2704 167.46 16.6249 165.378 16.6249H164.85V25.693H158.037ZM164.85 6.42325V11.1856H170.267C172.199 11.1856 173.146 10.3512 173.146 8.80836C173.146 7.26552 172.199 6.43112 170.267 6.43112H164.85V6.42325Z" fill="#E8552F"/>
<path d="M181.883 12.9961C181.883 5.70693 187.221 0 194.941 0C202.661 0 208 5.70693 208 12.9961C208 20.2852 202.661 25.9921 194.941 25.9921C187.221 25.9921 181.883 20.2852 181.883 12.9961ZM200.808 12.9961C200.808 9.32788 198.876 6.61217 194.941 6.61217C191.007 6.61217 189.075 9.33576 189.075 12.9961C189.075 16.6564 191.007 19.38 194.941 19.38C198.876 19.38 200.808 16.6564 200.808 12.9961Z" fill="#E8552F"/>
</g>
<defs>
<clipPath id="clip0_31_11">
<rect width="208" height="26" fill="white"/>
</clipPath>
</defs>
</svg>
