<svg width="880" height="880" viewBox="0 0 880 880" fill="none" xmlns="http://www.w3.org/2000/svg">
<rect width="880" height="880" fill="white"/>
<path d="M125 424.872V285.086H162.601V338.288H212.735V285.086H250.336V424.872H212.735V371.67H162.601V424.872H125Z" fill="#E8552F"/>
<path d="M263.478 354.762C263.478 314.513 292.941 283 335.59 283C378.239 283 407.658 314.513 407.658 354.762C407.658 395.011 378.195 426.524 335.59 426.524C292.984 426.524 263.522 395.011 263.522 354.762H263.478ZM367.925 354.762C367.925 334.507 357.262 319.511 335.546 319.511C313.83 319.511 303.168 334.55 303.168 354.762C303.168 374.974 313.83 390.013 335.546 390.013C357.262 390.013 367.925 374.974 367.925 354.762Z" fill="#E8552F"/>
<path d="M420.801 424.872V285.086H487.864C520.46 285.086 543.873 298.039 543.873 328.9C543.873 355.805 525.682 367.715 501.877 369.801C516.282 373.365 522.549 382.319 529.643 393.36L549.705 424.872H506.882L483.686 387.535C478.029 378.364 472.806 374.8 461.317 374.8H458.401V424.872H420.801ZM458.401 318.468V344.765H488.299C498.961 344.765 504.184 340.158 504.184 331.638C504.184 323.119 498.961 318.512 488.299 318.512H458.401V318.468Z" fill="#E8552F"/>
<path d="M552.403 354.762C552.403 314.513 581.866 283 624.471 283C667.077 283 696.539 314.513 696.539 354.762C696.539 395.011 667.077 426.524 624.471 426.524C581.866 426.524 552.403 395.011 552.403 354.762ZM656.85 354.762C656.85 334.507 646.187 319.511 624.471 319.511C602.755 319.511 592.093 334.55 592.093 354.762C592.093 374.974 602.755 390.013 624.471 390.013C646.187 390.013 656.85 374.974 656.85 354.762Z" fill="#E8552F"/>
<path d="M274.037 595.786V456H311.638V509.202H361.772V456H399.372V595.786H361.772V542.584H311.638V595.786H274.037Z" fill="#E8552F"/>
<path d="M420.262 595.786V456H457.862V595.786H420.262Z" fill="#E8552F"/>
<path d="M478.752 595.786V456H545.815C578.411 456 601.824 468.953 601.824 499.814C601.824 526.719 583.633 538.629 559.828 540.715C574.233 544.279 580.5 553.233 587.594 564.274L607.656 595.786H564.833L541.637 558.449C535.98 549.278 530.757 545.714 519.268 545.714H516.352V595.786H478.752ZM516.352 489.382V515.679H546.25C556.912 515.679 562.135 511.071 562.135 502.552C562.135 494.033 556.912 489.425 546.25 489.425H516.352V489.382Z" fill="#E8552F"/>
<path d="M610.354 525.676C610.354 485.427 639.817 453.914 682.422 453.914C725.028 453.914 754.49 485.427 754.49 525.676C754.49 565.925 725.028 597.438 682.422 597.438C639.817 597.438 610.354 565.925 610.354 525.676ZM714.801 525.676C714.801 505.421 704.138 490.425 682.422 490.425C660.706 490.425 650.044 505.464 650.044 525.676C650.044 545.888 660.706 560.927 682.422 560.927C704.138 560.927 714.801 545.888 714.801 525.676Z" fill="#E8552F"/>
</svg>
